<mxfile host="app.diagrams.net" modified="2023-09-07T08:30:47.377Z" agent="Mozilla/5.0 (Windows NT 10.0; Win64; x64) AppleWebKit/537.36 (KHTML, like Gecko) Chrome/116.0.0.0 Safari/537.36" etag="T0ifISZkfwy4c8Nj91Zq" version="21.7.2" type="device">
  <diagram name="Страница — 1" id="PO6SPmyXTiJdLFs5volx">
    <mxGraphModel dx="1434" dy="790" grid="1" gridSize="10" guides="1" tooltips="1" connect="1" arrows="1" fold="1" page="1" pageScale="1" pageWidth="827" pageHeight="1169" math="0" shadow="0">
      <root>
        <mxCell id="0" />
        <mxCell id="1" parent="0" />
        <mxCell id="FY-9RKJ4y2leJSX7ML3P-64" style="edgeStyle=orthogonalEdgeStyle;rounded=0;orthogonalLoop=1;jettySize=auto;html=1;exitX=0.25;exitY=0.1;exitDx=0;exitDy=0;exitPerimeter=0;entryX=1.009;entryY=0.6;entryDx=0;entryDy=0;entryPerimeter=0;endArrow=none;endFill=0;" parent="1" source="FY-9RKJ4y2leJSX7ML3P-1" target="FY-9RKJ4y2leJSX7ML3P-23" edge="1">
          <mxGeometry relative="1" as="geometry" />
        </mxCell>
        <mxCell id="FY-9RKJ4y2leJSX7ML3P-66" style="edgeStyle=orthogonalEdgeStyle;rounded=0;orthogonalLoop=1;jettySize=auto;html=1;exitX=0.5;exitY=0.5;exitDx=0;exitDy=0;exitPerimeter=0;endArrow=none;endFill=0;" parent="1" source="FY-9RKJ4y2leJSX7ML3P-1" target="FY-9RKJ4y2leJSX7ML3P-24" edge="1">
          <mxGeometry relative="1" as="geometry" />
        </mxCell>
        <mxCell id="FY-9RKJ4y2leJSX7ML3P-106" style="edgeStyle=orthogonalEdgeStyle;rounded=0;orthogonalLoop=1;jettySize=auto;html=1;exitX=0.5;exitY=0.5;exitDx=0;exitDy=0;exitPerimeter=0;entryX=0.6;entryY=0;entryDx=0;entryDy=0;entryPerimeter=0;endArrow=none;endFill=0;" parent="1" source="FY-9RKJ4y2leJSX7ML3P-1" target="FY-9RKJ4y2leJSX7ML3P-104" edge="1">
          <mxGeometry relative="1" as="geometry" />
        </mxCell>
        <mxCell id="FY-9RKJ4y2leJSX7ML3P-1" value="Админ" style="shape=umlActor;verticalLabelPosition=bottom;verticalAlign=top;html=1;outlineConnect=0;" parent="1" vertex="1">
          <mxGeometry x="393" y="550" width="30" height="60" as="geometry" />
        </mxCell>
        <mxCell id="FY-9RKJ4y2leJSX7ML3P-47" style="edgeStyle=orthogonalEdgeStyle;rounded=0;orthogonalLoop=1;jettySize=auto;html=1;exitX=0;exitY=0.3333333333333333;exitDx=0;exitDy=0;exitPerimeter=0;endArrow=none;endFill=0;" parent="1" source="FY-9RKJ4y2leJSX7ML3P-3" target="FY-9RKJ4y2leJSX7ML3P-21" edge="1">
          <mxGeometry relative="1" as="geometry" />
        </mxCell>
        <mxCell id="FY-9RKJ4y2leJSX7ML3P-56" style="edgeStyle=orthogonalEdgeStyle;rounded=0;orthogonalLoop=1;jettySize=auto;html=1;entryX=0.5;entryY=1;entryDx=0;entryDy=0;exitX=1;exitY=0.3333333333333333;exitDx=0;exitDy=0;exitPerimeter=0;endArrow=none;endFill=0;" parent="1" source="FY-9RKJ4y2leJSX7ML3P-3" target="FY-9RKJ4y2leJSX7ML3P-55" edge="1">
          <mxGeometry relative="1" as="geometry">
            <mxPoint x="459" y="430" as="sourcePoint" />
          </mxGeometry>
        </mxCell>
        <mxCell id="FY-9RKJ4y2leJSX7ML3P-3" value="Аутифицированный" style="shape=umlActor;verticalLabelPosition=bottom;verticalAlign=top;html=1;outlineConnect=0;" parent="1" vertex="1">
          <mxGeometry x="393" y="400" width="30" height="60" as="geometry" />
        </mxCell>
        <mxCell id="FY-9RKJ4y2leJSX7ML3P-38" value="" style="edgeStyle=orthogonalEdgeStyle;rounded=0;orthogonalLoop=1;jettySize=auto;html=1;exitX=0.75;exitY=0.1;exitDx=0;exitDy=0;exitPerimeter=0;endArrow=none;endFill=0;" parent="1" source="FY-9RKJ4y2leJSX7ML3P-7" target="FY-9RKJ4y2leJSX7ML3P-19" edge="1">
          <mxGeometry relative="1" as="geometry" />
        </mxCell>
        <mxCell id="FY-9RKJ4y2leJSX7ML3P-39" value="" style="edgeStyle=orthogonalEdgeStyle;rounded=0;orthogonalLoop=1;jettySize=auto;html=1;exitX=0.5;exitY=0;exitDx=0;exitDy=0;exitPerimeter=0;endArrow=none;endFill=0;" parent="1" source="FY-9RKJ4y2leJSX7ML3P-7" target="FY-9RKJ4y2leJSX7ML3P-16" edge="1">
          <mxGeometry relative="1" as="geometry">
            <mxPoint x="389" y="270" as="sourcePoint" />
          </mxGeometry>
        </mxCell>
        <mxCell id="FY-9RKJ4y2leJSX7ML3P-40" value="" style="edgeStyle=orthogonalEdgeStyle;rounded=0;orthogonalLoop=1;jettySize=auto;html=1;exitX=0.25;exitY=0.1;exitDx=0;exitDy=0;exitPerimeter=0;endArrow=none;endFill=0;" parent="1" source="FY-9RKJ4y2leJSX7ML3P-7" target="FY-9RKJ4y2leJSX7ML3P-15" edge="1">
          <mxGeometry relative="1" as="geometry" />
        </mxCell>
        <mxCell id="FY-9RKJ4y2leJSX7ML3P-7" value="Гость" style="shape=umlActor;verticalLabelPosition=bottom;verticalAlign=top;html=1;outlineConnect=0;" parent="1" vertex="1">
          <mxGeometry x="393" y="260" width="30" height="60" as="geometry" />
        </mxCell>
        <mxCell id="FY-9RKJ4y2leJSX7ML3P-13" value="" style="endArrow=block;html=1;rounded=0;exitX=0.5;exitY=0;exitDx=0;exitDy=0;exitPerimeter=0;endFill=0;" parent="1" source="FY-9RKJ4y2leJSX7ML3P-1" target="FY-9RKJ4y2leJSX7ML3P-3" edge="1">
          <mxGeometry width="50" height="50" relative="1" as="geometry">
            <mxPoint x="409" y="480" as="sourcePoint" />
            <mxPoint x="429" y="540" as="targetPoint" />
          </mxGeometry>
        </mxCell>
        <mxCell id="FY-9RKJ4y2leJSX7ML3P-14" value="" style="endArrow=block;html=1;rounded=0;exitX=0.5;exitY=0;exitDx=0;exitDy=0;exitPerimeter=0;endFill=0;" parent="1" edge="1">
          <mxGeometry width="50" height="50" relative="1" as="geometry">
            <mxPoint x="407.71" y="410" as="sourcePoint" />
            <mxPoint x="407.71" y="330" as="targetPoint" />
          </mxGeometry>
        </mxCell>
        <mxCell id="FY-9RKJ4y2leJSX7ML3P-85" style="edgeStyle=orthogonalEdgeStyle;rounded=0;orthogonalLoop=1;jettySize=auto;html=1;exitX=0;exitY=0.5;exitDx=0;exitDy=0;dashed=1;endArrow=open;endFill=0;" parent="1" source="FY-9RKJ4y2leJSX7ML3P-15" target="FY-9RKJ4y2leJSX7ML3P-84" edge="1">
          <mxGeometry relative="1" as="geometry" />
        </mxCell>
        <mxCell id="FY-9RKJ4y2leJSX7ML3P-15" value="Регистрация" style="ellipse;whiteSpace=wrap;html=1;" parent="1" vertex="1">
          <mxGeometry x="224" y="160" width="90" height="60" as="geometry" />
        </mxCell>
        <mxCell id="FY-9RKJ4y2leJSX7ML3P-42" value="" style="edgeStyle=orthogonalEdgeStyle;rounded=0;orthogonalLoop=1;jettySize=auto;html=1;dashed=1;endArrow=open;endFill=0;" parent="1" source="FY-9RKJ4y2leJSX7ML3P-16" target="FY-9RKJ4y2leJSX7ML3P-22" edge="1">
          <mxGeometry relative="1" as="geometry" />
        </mxCell>
        <mxCell id="FY-9RKJ4y2leJSX7ML3P-86" style="edgeStyle=orthogonalEdgeStyle;rounded=0;orthogonalLoop=1;jettySize=auto;html=1;exitX=0;exitY=1;exitDx=0;exitDy=0;dashed=1;endArrow=open;endFill=0;" parent="1" source="FY-9RKJ4y2leJSX7ML3P-16" target="FY-9RKJ4y2leJSX7ML3P-84" edge="1">
          <mxGeometry relative="1" as="geometry" />
        </mxCell>
        <mxCell id="FY-9RKJ4y2leJSX7ML3P-16" value="Логин" style="ellipse;whiteSpace=wrap;html=1;" parent="1" vertex="1">
          <mxGeometry x="329" y="80" width="90" height="60" as="geometry" />
        </mxCell>
        <mxCell id="FY-9RKJ4y2leJSX7ML3P-35" value="" style="edgeStyle=orthogonalEdgeStyle;rounded=0;orthogonalLoop=1;jettySize=auto;html=1;dashed=1;endArrow=open;endFill=0;" parent="1" source="FY-9RKJ4y2leJSX7ML3P-19" target="FY-9RKJ4y2leJSX7ML3P-28" edge="1">
          <mxGeometry relative="1" as="geometry" />
        </mxCell>
        <mxCell id="FY-9RKJ4y2leJSX7ML3P-36" value="" style="edgeStyle=orthogonalEdgeStyle;rounded=0;orthogonalLoop=1;jettySize=auto;html=1;dashed=1;endArrow=open;endFill=0;" parent="1" source="FY-9RKJ4y2leJSX7ML3P-19" target="FY-9RKJ4y2leJSX7ML3P-20" edge="1">
          <mxGeometry relative="1" as="geometry" />
        </mxCell>
        <mxCell id="FY-9RKJ4y2leJSX7ML3P-19" value="Просмотр информации" style="ellipse;whiteSpace=wrap;html=1;" parent="1" vertex="1">
          <mxGeometry x="459" y="170" width="90" height="60" as="geometry" />
        </mxCell>
        <mxCell id="FY-9RKJ4y2leJSX7ML3P-20" value="Просмотр сотрудников&amp;nbsp;" style="ellipse;whiteSpace=wrap;html=1;" parent="1" vertex="1">
          <mxGeometry x="459" y="50" width="90" height="60" as="geometry" />
        </mxCell>
        <mxCell id="FY-9RKJ4y2leJSX7ML3P-49" style="edgeStyle=orthogonalEdgeStyle;rounded=0;orthogonalLoop=1;jettySize=auto;html=1;exitX=0;exitY=0.5;exitDx=0;exitDy=0;entryX=0.435;entryY=1.006;entryDx=0;entryDy=0;entryPerimeter=0;dashed=1;endArrow=open;endFill=0;" parent="1" source="FY-9RKJ4y2leJSX7ML3P-21" target="FY-9RKJ4y2leJSX7ML3P-22" edge="1">
          <mxGeometry relative="1" as="geometry" />
        </mxCell>
        <mxCell id="FY-9RKJ4y2leJSX7ML3P-21" value="Редактирование профиля" style="ellipse;whiteSpace=wrap;html=1;" parent="1" vertex="1">
          <mxGeometry x="219" y="300" width="100" height="70" as="geometry" />
        </mxCell>
        <mxCell id="FY-9RKJ4y2leJSX7ML3P-22" value="Удалить аккаунт" style="ellipse;whiteSpace=wrap;html=1;" parent="1" vertex="1">
          <mxGeometry x="79" y="60" width="90" height="60" as="geometry" />
        </mxCell>
        <mxCell id="FY-9RKJ4y2leJSX7ML3P-23" value="Редактирование пользователей" style="ellipse;whiteSpace=wrap;html=1;" parent="1" vertex="1">
          <mxGeometry x="129" y="425" width="110" height="80" as="geometry" />
        </mxCell>
        <mxCell id="FY-9RKJ4y2leJSX7ML3P-124" style="edgeStyle=orthogonalEdgeStyle;rounded=0;orthogonalLoop=1;jettySize=auto;html=1;exitX=0;exitY=0.5;exitDx=0;exitDy=0;entryX=1;entryY=0.5;entryDx=0;entryDy=0;dashed=1;endArrow=open;endFill=0;" parent="1" source="FY-9RKJ4y2leJSX7ML3P-24" target="FY-9RKJ4y2leJSX7ML3P-123" edge="1">
          <mxGeometry relative="1" as="geometry" />
        </mxCell>
        <mxCell id="FY-9RKJ4y2leJSX7ML3P-127" style="edgeStyle=orthogonalEdgeStyle;rounded=0;orthogonalLoop=1;jettySize=auto;html=1;exitX=0;exitY=1;exitDx=0;exitDy=0;entryX=1;entryY=0;entryDx=0;entryDy=0;dashed=1;endArrow=open;endFill=0;" parent="1" source="FY-9RKJ4y2leJSX7ML3P-24" target="FY-9RKJ4y2leJSX7ML3P-125" edge="1">
          <mxGeometry relative="1" as="geometry" />
        </mxCell>
        <mxCell id="FY-9RKJ4y2leJSX7ML3P-24" value="Редактирование информации" style="ellipse;whiteSpace=wrap;html=1;" parent="1" vertex="1">
          <mxGeometry x="199" y="570" width="100" height="70" as="geometry" />
        </mxCell>
        <mxCell id="FY-9RKJ4y2leJSX7ML3P-28" value="Просмотр проектов" style="ellipse;whiteSpace=wrap;html=1;" parent="1" vertex="1">
          <mxGeometry x="579" y="110" width="90" height="60" as="geometry" />
        </mxCell>
        <mxCell id="FY-9RKJ4y2leJSX7ML3P-61" style="edgeStyle=orthogonalEdgeStyle;rounded=0;orthogonalLoop=1;jettySize=auto;html=1;exitX=0.5;exitY=0;exitDx=0;exitDy=0;entryX=0.5;entryY=1;entryDx=0;entryDy=0;dashed=1;endArrow=open;endFill=0;" parent="1" source="FY-9RKJ4y2leJSX7ML3P-55" target="FY-9RKJ4y2leJSX7ML3P-59" edge="1">
          <mxGeometry relative="1" as="geometry" />
        </mxCell>
        <mxCell id="FY-9RKJ4y2leJSX7ML3P-63" style="edgeStyle=orthogonalEdgeStyle;rounded=0;orthogonalLoop=1;jettySize=auto;html=1;exitX=1;exitY=0.5;exitDx=0;exitDy=0;entryX=0.5;entryY=1;entryDx=0;entryDy=0;dashed=1;endArrow=open;endFill=0;" parent="1" source="FY-9RKJ4y2leJSX7ML3P-55" target="FY-9RKJ4y2leJSX7ML3P-62" edge="1">
          <mxGeometry relative="1" as="geometry" />
        </mxCell>
        <mxCell id="FY-9RKJ4y2leJSX7ML3P-55" value="Доступ к информации" style="ellipse;whiteSpace=wrap;html=1;" parent="1" vertex="1">
          <mxGeometry x="469" y="340" width="110" height="70" as="geometry" />
        </mxCell>
        <mxCell id="FY-9RKJ4y2leJSX7ML3P-59" value="Доступ к&amp;nbsp; информации о месте добычи" style="ellipse;whiteSpace=wrap;html=1;" parent="1" vertex="1">
          <mxGeometry x="569" y="240" width="90" height="70" as="geometry" />
        </mxCell>
        <mxCell id="FY-9RKJ4y2leJSX7ML3P-62" value="Доступ к информации о складах" style="ellipse;whiteSpace=wrap;html=1;" parent="1" vertex="1">
          <mxGeometry x="669" y="280" width="100" height="80" as="geometry" />
        </mxCell>
        <mxCell id="FY-9RKJ4y2leJSX7ML3P-81" value="Создание новостной информации" style="ellipse;whiteSpace=wrap;html=1;" parent="1" vertex="1">
          <mxGeometry x="479" y="650" width="100" height="80" as="geometry" />
        </mxCell>
        <mxCell id="FY-9RKJ4y2leJSX7ML3P-84" value="Подтверждение учетной записи" style="ellipse;whiteSpace=wrap;html=1;" parent="1" vertex="1">
          <mxGeometry x="129" y="210" width="100" height="70" as="geometry" />
        </mxCell>
        <mxCell id="FY-9RKJ4y2leJSX7ML3P-96" style="edgeStyle=orthogonalEdgeStyle;rounded=0;orthogonalLoop=1;jettySize=auto;html=1;exitX=0.5;exitY=1;exitDx=0;exitDy=0;" parent="1" edge="1">
          <mxGeometry relative="1" as="geometry">
            <mxPoint x="381" y="730" as="sourcePoint" />
            <mxPoint x="381" y="730" as="targetPoint" />
          </mxGeometry>
        </mxCell>
        <mxCell id="FY-9RKJ4y2leJSX7ML3P-100" value="Редактирование новостной информации" style="ellipse;whiteSpace=wrap;html=1;" parent="1" vertex="1">
          <mxGeometry x="629" y="650" width="100" height="80" as="geometry" />
        </mxCell>
        <mxCell id="FY-9RKJ4y2leJSX7ML3P-107" style="edgeStyle=orthogonalEdgeStyle;rounded=0;orthogonalLoop=1;jettySize=auto;html=1;exitX=0.5;exitY=1;exitDx=0;exitDy=0;dashed=1;endArrow=open;endFill=0;" parent="1" source="FY-9RKJ4y2leJSX7ML3P-104" target="FY-9RKJ4y2leJSX7ML3P-81" edge="1">
          <mxGeometry relative="1" as="geometry" />
        </mxCell>
        <mxCell id="FY-9RKJ4y2leJSX7ML3P-108" style="edgeStyle=orthogonalEdgeStyle;rounded=0;orthogonalLoop=1;jettySize=auto;html=1;exitX=1;exitY=1;exitDx=0;exitDy=0;dashed=1;endArrow=open;endFill=0;" parent="1" source="FY-9RKJ4y2leJSX7ML3P-104" target="FY-9RKJ4y2leJSX7ML3P-100" edge="1">
          <mxGeometry relative="1" as="geometry" />
        </mxCell>
        <mxCell id="FY-9RKJ4y2leJSX7ML3P-110" style="edgeStyle=orthogonalEdgeStyle;rounded=0;orthogonalLoop=1;jettySize=auto;html=1;exitX=1;exitY=0.5;exitDx=0;exitDy=0;entryX=0;entryY=0.5;entryDx=0;entryDy=0;dashed=1;endArrow=open;endFill=0;" parent="1" source="FY-9RKJ4y2leJSX7ML3P-104" target="FY-9RKJ4y2leJSX7ML3P-109" edge="1">
          <mxGeometry relative="1" as="geometry" />
        </mxCell>
        <mxCell id="FY-9RKJ4y2leJSX7ML3P-104" value="Работа с новостной информацией" style="ellipse;whiteSpace=wrap;html=1;" parent="1" vertex="1">
          <mxGeometry x="529" y="520" width="100" height="80" as="geometry" />
        </mxCell>
        <mxCell id="FY-9RKJ4y2leJSX7ML3P-109" value="Удаление новостной информации" style="ellipse;whiteSpace=wrap;html=1;" parent="1" vertex="1">
          <mxGeometry x="689" y="530" width="100" height="80" as="geometry" />
        </mxCell>
        <mxCell id="FY-9RKJ4y2leJSX7ML3P-123" value="Редактирование информации о складах" style="ellipse;whiteSpace=wrap;html=1;" parent="1" vertex="1">
          <mxGeometry x="39" y="540" width="105" height="80" as="geometry" />
        </mxCell>
        <mxCell id="FY-9RKJ4y2leJSX7ML3P-125" value="Редактирование информации о месте добычи" style="ellipse;whiteSpace=wrap;html=1;" parent="1" vertex="1">
          <mxGeometry x="64" y="630" width="105" height="80" as="geometry" />
        </mxCell>
      </root>
    </mxGraphModel>
  </diagram>
</mxfile>
